<svg width="55" height="24" viewBox="0 0 55 24" fill="none" xmlns="http://www.w3.org/2000/svg">
<path d="M0 23.6215V7.06439H4.66754V10.6597H4.82523C4.90933 10.1971 5.05651 9.75558 5.26675 9.33509C5.477 8.89356 5.75033 8.5046 6.08673 8.1682C6.44415 7.8318 6.86465 7.56899 7.34823 7.37976C7.8318 7.16951 8.39948 7.06439 9.05125 7.06439H9.87122V11.4166H8.70434C7.33771 11.4166 6.318 11.5953 5.6452 11.9527C4.99343 12.3101 4.66754 12.9724 4.66754 13.9396V23.6215H0Z" fill="black"/>
<path d="M18.5571 24C17.2956 24 16.1707 23.8003 15.1826 23.4008C14.1944 22.9803 13.3534 22.4021 12.6596 21.6662C11.9868 20.9093 11.4717 19.9947 11.1142 18.9225C10.7778 17.8502 10.6096 16.6518 10.6096 15.3272C10.6096 14.0237 10.7778 12.8463 11.1142 11.795C11.4506 10.7227 11.9447 9.80815 12.5965 9.05125C13.2693 8.29435 14.0893 7.71616 15.0564 7.31669C16.0236 6.89619 17.1274 6.68594 18.3679 6.68594C19.7345 6.68594 20.9014 6.91721 21.8685 7.37976C22.8567 7.84231 23.6556 8.46255 24.2654 9.24047C24.8961 10.0184 25.3481 10.9225 25.6215 11.9527C25.9158 12.9619 26.063 14.0237 26.063 15.138V16.5256H15.4349V16.7779C15.4349 17.8712 15.7292 18.7438 16.3179 19.3955C16.9066 20.0263 17.8317 20.3417 19.0932 20.3417C20.0604 20.3417 20.8488 20.1524 21.4585 19.774C22.0682 19.3745 22.6359 18.9014 23.1615 18.3548L25.4953 21.2562C24.7594 22.1183 23.7923 22.7911 22.5939 23.2746C21.4165 23.7582 20.0709 24 18.5571 24ZM18.4625 10.1235C17.5163 10.1235 16.77 10.4389 16.2233 11.0696C15.6977 11.6794 15.4349 12.4993 15.4349 13.5296V13.7819H21.2378V13.498C21.2378 12.4888 21.0065 11.6794 20.5439 11.0696C20.1024 10.4389 19.4086 10.1235 18.4625 10.1235Z" fill="black"/>
<path d="M29.2332 10.6912H26.8995V7.06439H29.2332V5.10907C29.2332 3.51117 29.6537 2.31274 30.4947 1.5138C31.3357 0.693823 32.5657 0.283837 34.1846 0.283837H37.2122V3.91064H33.9008V7.06439H37.2122V10.6912H33.9008V23.6215H29.2332V10.6912Z" fill="black"/>
<path d="M44.4446 23.6215C42.8467 23.6215 41.6693 23.2326 40.9124 22.4547C40.1766 21.6767 39.8086 20.5519 39.8086 19.0802V0.283837H44.4762V19.9947H46.5577V23.6215H44.4446Z" fill="black"/>
<path d="M51.6899 5.29829C50.7438 5.29829 50.0499 5.08804 49.6084 4.66754C49.1879 4.22602 48.9777 3.66886 48.9777 2.99606V2.30223C48.9777 1.62943 49.1879 1.08279 49.6084 0.662285C50.0499 0.220761 50.7438 0 51.6899 0C52.636 0 53.3193 0.220761 53.7398 0.662285C54.1813 1.08279 54.4021 1.62943 54.4021 2.30223V2.99606C54.4021 3.66886 54.1813 4.22602 53.7398 4.66754C53.3193 5.08804 52.636 5.29829 51.6899 5.29829ZM49.3561 7.06439H54.0237V23.6215H49.3561V7.06439Z" fill="black"/>
</svg>
