<svg width="138" height="29" viewBox="0 0 138 29" fill="none" xmlns="http://www.w3.org/2000/svg">
<path d="M0.208 5.2H4.944V8.016H5.104C5.33867 7.07733 5.872 6.30933 6.704 5.712C7.55733 5.11467 8.528 4.816 9.616 4.816C11.7493 4.816 13.36 5.56267 14.448 7.056C15.536 8.54933 16.08 10.7253 16.08 13.584C16.08 16.4427 15.536 18.6293 14.448 20.144C13.36 21.6373 11.7493 22.384 9.616 22.384C9.06133 22.384 8.53867 22.2987 8.048 22.128C7.55733 21.9787 7.10933 21.7653 6.704 21.488C6.32 21.1893 5.98933 20.848 5.712 20.464C5.43467 20.0587 5.232 19.632 5.104 19.184H4.944V28.4H0.208V5.2ZM8.048 18.544C8.944 18.544 9.68 18.2347 10.256 17.616C10.8533 16.976 11.152 16.1227 11.152 15.056V12.144C11.152 11.0773 10.8533 10.2347 10.256 9.616C9.68 8.976 8.944 8.656 8.048 8.656C7.152 8.656 6.40533 8.88 5.808 9.328C5.232 9.75467 4.944 10.352 4.944 11.12V16.08C4.944 16.848 5.232 17.456 5.808 17.904C6.40533 18.3307 7.152 18.544 8.048 18.544ZM18.8768 22V5.2H23.6128V8.848H23.7728C23.8581 8.37867 24.0074 7.93067 24.2208 7.504C24.4341 7.056 24.7114 6.66133 25.0528 6.32C25.4154 5.97867 25.8421 5.712 26.3328 5.52C26.8234 5.30667 27.3994 5.2 28.0608 5.2H28.8928V9.616H27.7088C26.3221 9.616 25.2874 9.79733 24.6048 10.16C23.9434 10.5227 23.6128 11.1947 23.6128 12.176V22H18.8768ZM37.674 22.384C36.4367 22.384 35.3273 22.1813 34.346 21.776C33.386 21.3707 32.5647 20.784 31.882 20.016C31.2207 19.248 30.7087 18.32 30.346 17.232C29.9833 16.144 29.802 14.928 29.802 13.584C29.802 12.24 29.9833 11.024 30.346 9.936C30.7087 8.848 31.2207 7.93067 31.882 7.184C32.5647 6.416 33.386 5.82933 34.346 5.424C35.3273 5.01867 36.4367 4.816 37.674 4.816C38.9113 4.816 40.01 5.01867 40.97 5.424C41.9513 5.82933 42.7727 6.416 43.434 7.184C44.1167 7.93067 44.6393 8.848 45.002 9.936C45.3647 11.024 45.546 12.24 45.546 13.584C45.546 14.928 45.3647 16.144 45.002 17.232C44.6393 18.32 44.1167 19.248 43.434 20.016C42.7727 20.784 41.9513 21.3707 40.97 21.776C40.01 22.1813 38.9113 22.384 37.674 22.384ZM37.674 18.64C38.6127 18.64 39.338 18.352 39.85 17.776C40.362 17.2 40.618 16.3787 40.618 15.312V11.888C40.618 10.8213 40.362 10 39.85 9.424C39.338 8.848 38.6127 8.56 37.674 8.56C36.7353 8.56 36.01 8.848 35.498 9.424C34.986 10 34.73 10.8213 34.73 11.888V15.312C34.73 16.3787 34.986 17.2 35.498 17.776C36.01 18.352 36.7353 18.64 37.674 18.64ZM53.821 22C52.1783 22 50.9303 21.584 50.077 20.752C49.245 19.92 48.829 18.704 48.829 17.104V8.88H46.461V5.2H47.645C48.285 5.2 48.7223 5.05067 48.957 4.752C49.1917 4.432 49.309 3.984 49.309 3.408V0.655998H53.565V5.2H56.893V8.88H53.565V18.32H56.637V22H53.821ZM66.074 22.384C64.8367 22.384 63.7273 22.1813 62.746 21.776C61.786 21.3707 60.9647 20.784 60.282 20.016C59.6207 19.248 59.1087 18.32 58.746 17.232C58.3833 16.144 58.202 14.928 58.202 13.584C58.202 12.24 58.3833 11.024 58.746 9.936C59.1087 8.848 59.6207 7.93067 60.282 7.184C60.9647 6.416 61.786 5.82933 62.746 5.424C63.7273 5.01867 64.8367 4.816 66.074 4.816C67.3113 4.816 68.41 5.01867 69.37 5.424C70.3513 5.82933 71.1727 6.416 71.834 7.184C72.5167 7.93067 73.0393 8.848 73.402 9.936C73.7647 11.024 73.946 12.24 73.946 13.584C73.946 14.928 73.7647 16.144 73.402 17.232C73.0393 18.32 72.5167 19.248 71.834 20.016C71.1727 20.784 70.3513 21.3707 69.37 21.776C68.41 22.1813 67.3113 22.384 66.074 22.384ZM66.074 18.64C67.0127 18.64 67.738 18.352 68.25 17.776C68.762 17.2 69.018 16.3787 69.018 15.312V11.888C69.018 10.8213 68.762 10 68.25 9.424C67.738 8.848 67.0127 8.56 66.074 8.56C65.1353 8.56 64.41 8.848 63.898 9.424C63.386 10 63.13 10.8213 63.13 11.888V15.312C63.13 16.3787 63.386 17.2 63.898 17.776C64.41 18.352 65.1353 18.64 66.074 18.64ZM82.221 22C80.5783 22 79.3303 21.584 78.477 20.752C77.645 19.92 77.229 18.704 77.229 17.104V8.88H74.861V5.2H76.045C76.685 5.2 77.1223 5.05067 77.357 4.752C77.5917 4.432 77.709 3.984 77.709 3.408V0.655998H81.965V5.2H85.293V8.88H81.965V18.32H85.037V22H82.221ZM98.055 5.2H102.471L96.007 24.592C95.5803 25.8933 94.9723 26.8533 94.183 27.472C93.415 28.0907 92.3057 28.4 90.855 28.4H87.911V24.72H91.079L91.655 22.864L85.767 5.2H90.471L92.935 13.04L94.151 17.904H94.343L95.591 13.04L98.055 5.2ZM104.077 5.2H108.813V8.016H108.973C109.207 7.07733 109.741 6.30933 110.573 5.712C111.426 5.11467 112.397 4.816 113.485 4.816C115.618 4.816 117.229 5.56267 118.317 7.056C119.405 8.54933 119.949 10.7253 119.949 13.584C119.949 16.4427 119.405 18.6293 118.317 20.144C117.229 21.6373 115.618 22.384 113.485 22.384C112.93 22.384 112.407 22.2987 111.917 22.128C111.426 21.9787 110.978 21.7653 110.573 21.488C110.189 21.1893 109.858 20.848 109.581 20.464C109.303 20.0587 109.101 19.632 108.973 19.184H108.813V28.4H104.077V5.2ZM111.917 18.544C112.813 18.544 113.549 18.2347 114.125 17.616C114.722 16.976 115.021 16.1227 115.021 15.056V12.144C115.021 11.0773 114.722 10.2347 114.125 9.616C113.549 8.976 112.813 8.656 111.917 8.656C111.021 8.656 110.274 8.88 109.677 9.328C109.101 9.75467 108.813 10.352 108.813 11.12V16.08C108.813 16.848 109.101 17.456 109.677 17.904C110.274 18.3307 111.021 18.544 111.917 18.544ZM129.753 22.384C128.473 22.384 127.332 22.1813 126.329 21.776C125.327 21.3493 124.473 20.7627 123.769 20.016C123.087 19.248 122.564 18.32 122.201 17.232C121.86 16.144 121.689 14.928 121.689 13.584C121.689 12.2613 121.86 11.0667 122.201 10C122.543 8.912 123.044 7.984 123.705 7.216C124.388 6.448 125.22 5.86133 126.201 5.456C127.183 5.02933 128.303 4.816 129.561 4.816C130.948 4.816 132.132 5.05067 133.113 5.52C134.116 5.98933 134.927 6.61867 135.545 7.408C136.185 8.19733 136.644 9.11467 136.921 10.16C137.22 11.184 137.369 12.2613 137.369 13.392V14.8H126.585V15.056C126.585 16.1653 126.884 17.0507 127.481 17.712C128.079 18.352 129.017 18.672 130.297 18.672C131.279 18.672 132.079 18.48 132.697 18.096C133.316 17.6907 133.892 17.2107 134.425 16.656L136.793 19.6C136.047 20.4747 135.065 21.1573 133.849 21.648C132.655 22.1387 131.289 22.384 129.753 22.384ZM129.657 8.304C128.697 8.304 127.94 8.624 127.385 9.264C126.852 9.88267 126.585 10.7147 126.585 11.76V12.016H132.473V11.728C132.473 10.704 132.239 9.88267 131.769 9.264C131.321 8.624 130.617 8.304 129.657 8.304Z" fill="black"/>
</svg>
